<?xml version="1.0" encoding="UTF-8" standalone="no"?>
<!-- Created with Inkscape (http://www.inkscape.org/) -->

<svg
   xmlns:dc="http://purl.org/dc/elements/1.1/"
   xmlns:cc="http://creativecommons.org/ns#"
   xmlns:rdf="http://www.w3.org/1999/02/22-rdf-syntax-ns#"
   xmlns:svg="http://www.w3.org/2000/svg"
   xmlns="http://www.w3.org/2000/svg"
   xmlns:sodipodi="http://sodipodi.sourceforge.net/DTD/sodipodi-0.dtd"
   xmlns:inkscape="http://www.inkscape.org/namespaces/inkscape"
   width="512.04773"
   height="511.95218"
   id="svg2"
   sodipodi:version="0.32"
   inkscape:version="0.48.2 r9819"
   version="1.0"
   sodipodi:docname="httppp.svg"
   inkscape:output_extension="org.inkscape.output.svg.inkscape">
  <defs
     id="defs4" />
  <sodipodi:namedview
     id="base"
     pagecolor="#ffffff"
     bordercolor="#666666"
     borderopacity="1.0"
     inkscape:pageopacity="0.0"
     inkscape:pageshadow="2"
     inkscape:zoom="0.9899495"
     inkscape:cx="258.24542"
     inkscape:cy="162.74022"
     inkscape:document-units="px"
     inkscape:current-layer="layer1"
     showgrid="true"
     inkscape:window-width="1512"
     inkscape:window-height="881"
     inkscape:window-x="84"
     inkscape:window-y="-4"
     fit-margin-top="0"
     fit-margin-left="0"
     fit-margin-right="0"
     fit-margin-bottom="0"
     inkscape:window-maximized="1" />
  <metadata
     id="metadata7">
    <rdf:RDF>
      <cc:Work
         rdf:about="">
        <dc:format>image/svg+xml</dc:format>
        <dc:type
           rdf:resource="http://purl.org/dc/dcmitype/StillImage" />
        <dc:title />
      </cc:Work>
    </rdf:RDF>
  </metadata>
  <g
     inkscape:label="Calque 1"
     inkscape:groupmode="layer"
     id="layer1"
     transform="translate(-288.15446,-23.267529)">
    <g
       id="g2992"
       transform="matrix(13.129503,0,0,13.12691,-3495.1952,-6872.4611)">
      <path
         inkscape:connector-curvature="0"
         id="rect2990"
         d="m 290.15421,527.31046 35.00409,0 0,35.00408 -35.00409,0 z"
         style="fill:#ffffc0;fill-opacity:1;stroke:#000000;stroke-width:1.99600005;stroke-linecap:butt;stroke-linejoin:miter;stroke-miterlimit:4;stroke-opacity:1;stroke-dasharray:none;marker-start:none;marker-mid:none;marker-end:none" />
      <path
         sodipodi:nodetypes="csssccscc"
         inkscape:connector-curvature="0"
         id="path2984"
         d="m 318.12443,548.3433 c -1.63433,0 -3.04516,2.17247 -3.04516,4.85235 0,2.67988 1.34278,4.85235 2.97711,4.85235 1.63433,0 2.95329,-2.17247 2.95329,-4.85235 0,-2.67988 -1.31896,-4.85235 -4.00294,-5.05273 l -20.5999,0.25092 c -1.83601,-0.026 -3.28673,2.12193 -3.28673,4.80181 0,2.67988 1.32458,4.8815 3.38199,4.95344 l 21.23106,-0.11553"
         style="fill:#ffe080;fill-opacity:1;stroke:#000000;stroke-width:1.17763126;stroke-miterlimit:4;stroke-opacity:1;stroke-dasharray:none" />
      <path
         inkscape:connector-curvature="0"
         sodipodi:nodetypes="cccccccc"
         id="path2177"
         d="m 305.04307,553.16895 0,-9.73935 -5.66108,-0.051 7.62235,-5.57538 7.74344,5.5936 -5.61003,0.051 -0.051,9.72113 -4.04362,0 z"
         style="fill:#000000;fill-opacity:1;fill-rule:evenodd;stroke:none" />
      <g
         transform="matrix(0.80872547,0,0,0.80872547,59.068354,102.83184)"
         id="g3815">
        <path
           transform="matrix(0.33355413,0,0,0.33355413,195.11726,351.86467)"
           sodipodi:type="arc"
           style="fill:#ff8080;fill-opacity:1;stroke:#000000;stroke-width:2;stroke-miterlimit:4;stroke-opacity:0.25098039;stroke-dasharray:none"
           id="path2160"
           sodipodi:cx="307.65457"
           sodipodi:cy="544.82367"
           sodipodi:rx="17.488266"
           sodipodi:ry="17.488266"
           d="m 325.14284,544.82367 c 0,9.6585 -7.82977,17.48827 -17.48827,17.48827 -9.6585,0 -17.48826,-7.82977 -17.48826,-17.48827 0,-9.6585 7.82976,-17.48827 17.48826,-17.48827 9.6585,0 17.48827,7.82977 17.48827,17.48827 z" />
        <path
           style="fill:#000000;fill-opacity:1;fill-rule:evenodd;stroke:#000000;stroke-width:0.33355412px;stroke-linecap:butt;stroke-linejoin:miter;stroke-opacity:1"
           d="m 296.90674,536.75771 0,-4.01694 -2.33488,-0.0211 3.14379,-2.29953 3.19374,2.30704 -2.31382,0.0211 -0.0211,4.00943 -1.66777,0 z"
           id="path2177-7"
           sodipodi:nodetypes="cccccccc"
           inkscape:connector-curvature="0" />
      </g>
      <g
         transform="matrix(0.80872547,0,0,0.80872547,57.84295,102.78213)"
         id="g3811">
        <path
           sodipodi:type="arc"
           style="fill:#8080ff;fill-opacity:1;stroke:#000000;stroke-width:2;stroke-miterlimit:4;stroke-opacity:0.25098039;stroke-dasharray:none"
           id="path2160-4"
           sodipodi:cx="307.65457"
           sodipodi:cy="544.82367"
           sodipodi:rx="17.488266"
           sodipodi:ry="17.488266"
           d="m 325.14284,544.82367 c 0,9.6585 -7.82977,17.48827 -17.48827,17.48827 -9.6585,0 -17.48826,-7.82977 -17.48826,-17.48827 0,-9.6585 7.82976,-17.48827 17.48826,-17.48827 9.6585,0 17.48827,7.82977 17.48827,17.48827 z"
           transform="matrix(0.33272555,0,0,0.33272555,215.03927,352.37757)" />
        <path
           style="fill:#000000;fill-opacity:1;fill-rule:evenodd;stroke:#000000;stroke-width:0.33272555px;stroke-linecap:butt;stroke-linejoin:miter;stroke-opacity:1"
           d="m 316.5759,530.49733 0,4.00696 -2.32909,0.021 3.13599,2.29382 3.1858,-2.30131 -2.30807,-0.021 -0.021,-3.99946 -1.66363,0 z"
           id="path2177-0"
           sodipodi:nodetypes="cccccccc"
           inkscape:connector-curvature="0" />
      </g>
      <path
         inkscape:connector-curvature="0"
         id="rect2990-1"
         d="m 289.20819,526.36445 36.8961,0 0,36.89611 -36.8961,0 z"
         style="fill:none;stroke:#ffffff;stroke-width:2.10388732;stroke-linecap:butt;stroke-linejoin:miter;stroke-miterlimit:4;stroke-opacity:0.93333333;stroke-dasharray:none;marker-start:none;marker-mid:none;marker-end:none" />
    </g>
  </g>
</svg>
